<svg width="22" height="20" viewBox="0 0 22 20" fill="none" xmlns="http://www.w3.org/2000/svg">
<path d="M8.56684 16.1955V15.795H5.24884C4.72107 15.7944 4.21511 15.6043 3.84191 15.2665C3.46872 14.9287 3.25875 14.4706 3.25805 13.9929V13.6869C3.25631 13.3059 3.37273 12.9321 3.59406 12.608C3.81538 12.2839 4.13274 12.0225 4.51004 11.8536C4.67881 11.7773 4.82314 11.6631 4.92925 11.5218C5.03536 11.3806 5.0997 11.2172 5.11612 11.047L5.51075 7.11443C5.58522 6.37239 5.84242 5.65488 6.26344 5.01462C6.68446 4.37437 7.25861 3.82765 7.94369 3.41462C8.62877 3.0016 9.40738 2.73277 10.2223 2.6279C11.0372 2.52302 11.8677 2.58477 12.6528 2.80859C12.4102 3.15011 12.2211 3.52048 12.091 3.90908C11.735 3.82367 11.3683 3.78059 11 3.78093C9.95503 3.77649 8.94648 4.12837 8.17508 4.76655C7.40368 5.40473 6.92599 6.28242 6.83706 7.22496L6.44332 11.156C6.40671 11.5302 6.26455 11.8896 6.03045 12.1999C5.79636 12.5101 5.47817 12.7607 5.10639 12.9276C4.94965 12.9975 4.81771 13.1058 4.72558 13.2401C4.63345 13.3745 4.58483 13.5296 4.58524 13.6877V13.9937C4.58571 14.1528 4.65581 14.3053 4.78018 14.4177C4.90455 14.5301 5.07307 14.5934 5.24884 14.5936H16.7512C16.9272 14.5934 17.0958 14.53 17.2202 14.4174C17.3446 14.3048 17.4146 14.1521 17.4148 13.9929V13.6869C17.4155 13.5291 17.3673 13.3743 17.2757 13.2401C17.184 13.1059 17.0526 12.9976 16.8963 12.9276C16.5241 12.761 16.2054 12.5105 15.9708 12.2003C15.7362 11.89 15.5936 11.5304 15.5568 11.156L15.3798 9.40992C15.8184 9.52631 16.273 9.5859 16.73 9.58693L16.8769 11.0462C16.8947 11.2159 16.9598 11.3787 17.0659 11.5194C17.172 11.6602 17.3158 11.7743 17.4839 11.8512C17.8615 12.0202 18.1792 12.2816 18.4009 12.6058C18.6227 12.93 18.7396 13.304 18.7385 13.6853V13.9913C18.738 14.4691 18.5281 14.9272 18.1549 15.2651C17.7816 15.603 17.2755 15.793 16.7477 15.7934H13.4332V16.1955C13.4332 16.7796 13.1769 17.3399 12.7206 17.7529C12.2643 18.166 11.6454 18.3981 11 18.3981C10.3547 18.3981 9.73582 18.166 9.27951 17.7529C8.8232 17.3399 8.56684 16.7796 8.56684 16.1955ZM9.89404 16.1955C9.89404 16.461 10.0106 16.7157 10.218 16.9034C10.4254 17.0912 10.7067 17.1966 11 17.1966C11.2934 17.1966 11.5747 17.0912 11.7821 16.9034C11.9895 16.7157 12.106 16.461 12.106 16.1955V15.795H9.89404V16.1955ZM16.5716 7.98105C16.0895 7.95587 15.6207 7.82858 15.2028 7.60941L15.1639 7.22496C15.0694 6.2336 14.5452 5.31643 13.7058 4.67397C13.7902 4.26403 13.9746 3.87631 14.2455 3.53904C14.8784 3.95646 15.4056 4.49131 15.7919 5.10787C16.1783 5.72443 16.4148 6.40851 16.4858 7.11443L16.5743 7.98025L16.5716 7.98105Z" fill="#141124"/>
<path d="M16.7512 7.98584C16.1388 7.98584 15.54 7.82143 15.0308 7.5134C14.5215 7.20537 14.1246 6.76756 13.8902 6.25533C13.6558 5.7431 13.5945 5.17945 13.714 4.63566C13.8334 4.09188 14.1284 3.59238 14.5615 3.20034C14.9946 2.80829 15.5464 2.5413 16.1471 2.43314C16.7478 2.32497 17.3705 2.38049 17.9363 2.59266C18.5022 2.80483 18.9859 3.16414 19.3261 3.62514C19.6664 4.08613 19.848 4.62812 19.848 5.18256C19.848 5.92604 19.5218 6.63906 18.941 7.16478C18.3603 7.6905 17.5726 7.98584 16.7512 7.98584Z" fill="#FF6359"/>
</svg>
