<svg width="11" height="10" viewBox="0 0 11 10" fill="none" xmlns="http://www.w3.org/2000/svg">
<path d="M0.472717 7.48722C0.171644 7.76093 0 8.14894 0 8.55583C0 9.35342 0.646579 10 1.44417 10H1.65248C2.06356 10 2.45988 9.84678 2.76405 9.57026L7.79499 4.99668C8.46768 4.38514 8.46768 3.32724 7.79499 2.71571C7.2071 2.18126 6.30927 2.18126 5.72138 2.71571L0.472717 7.48722ZM10.8213 2.2455C10.8779 2.19412 10.9229 2.13309 10.9535 2.0659C10.9842 1.99871 11 1.92667 11 1.85393C11 1.78118 10.9842 1.70915 10.9535 1.64196C10.9229 1.57477 10.8779 1.51373 10.8213 1.46236L9.39141 0.162469C9.33489 0.110968 9.26776 0.0701082 9.19385 0.0422293C9.11993 0.0143503 9.0407 0 8.96068 0C8.88066 0 8.80142 0.0143503 8.72751 0.0422293C8.6536 0.0701082 8.58646 0.110968 8.52995 0.162469C7.93135 0.706651 7.93135 1.64804 8.52995 2.19222L8.66812 2.31783C9.25601 2.85228 10.1538 2.85228 10.7417 2.31783L10.8213 2.2455Z" fill="url(#paint0_linear_1_212)"/>
<defs>
<linearGradient id="paint0_linear_1_212" x1="5.47639" y1="0" x2="5.47639" y2="13.1579" gradientUnits="userSpaceOnUse">
<stop stop-color="#72B5F1"/>
<stop offset="1" stop-color="#1776CA" stop-opacity="0.83"/>
</linearGradient>
</defs>
</svg>
