<svg width="14" height="13" viewBox="0 0 14 13" fill="none" xmlns="http://www.w3.org/2000/svg">
<path d="M6.10928 0.74536C6.48043 0.0181086 7.51958 0.0181087 7.89072 0.74536L9.16692 3.24609C9.31222 3.53081 9.58488 3.72891 9.90057 3.77911L12.6733 4.22009C13.4796 4.34833 13.8007 5.33662 13.2238 5.91433L11.2398 7.90084C11.0139 8.12701 10.9098 8.44755 10.9596 8.7633L11.397 11.5366C11.5242 12.3431 10.6835 12.9539 9.95578 12.5837L7.45342 11.3107C7.16851 11.1657 6.83149 11.1657 6.54658 11.3107L4.04422 12.5837C3.31649 12.9539 2.4758 12.3431 2.60301 11.5366L3.04043 8.76329C3.09023 8.44755 2.98609 8.12701 2.7602 7.90084L0.776237 5.91433C0.199269 5.33662 0.520384 4.34833 1.32673 4.22009L4.09943 3.77911C4.41512 3.72891 4.68778 3.53081 4.83308 3.24609L6.10928 0.74536Z" fill="#FFB300"/>
</svg>
