<svg width="7" height="9" viewBox="0 0 7 9" fill="none" xmlns="http://www.w3.org/2000/svg">
<path d="M0.583518 7.87511C0.584455 8.17317 0.707665 8.45877 0.926241 8.66953C1.14482 8.88029 1.441 8.9991 1.75011 9H5.25033C5.55944 8.9991 5.85563 8.88029 6.0742 8.66953C6.29278 8.45877 6.41599 8.17317 6.41693 7.87511V5.16649C6.41693 3.55564 5.11107 2.24979 3.50022 2.24979C1.88937 2.24979 0.583518 3.55564 0.583518 5.16649V7.87511ZM7 1.12511C7 0.814476 6.74818 0.562661 6.43755 0.562661H5.65564C5.39562 0.562661 5.14575 0.461812 4.95857 0.28133C4.7714 0.100849 4.52152 0 4.26151 0H2.73833C2.47843 0 2.22867 0.100856 2.04165 0.28133C1.85463 0.461804 1.60487 0.562661 1.34497 0.562661H0.562447C0.251816 0.562661 0 0.814476 0 1.12511C0 1.43574 0.251816 1.68755 0.562447 1.68755H6.43755C6.74818 1.68755 7 1.43574 7 1.12511Z" fill="url(#paint0_linear_1_213)"/>
<defs>
<linearGradient id="paint0_linear_1_213" x1="3.48498" y1="0" x2="3.48498" y2="11.8421" gradientUnits="userSpaceOnUse">
<stop stop-color="#72B5F1"/>
<stop offset="1" stop-color="#1776CA" stop-opacity="0.83"/>
</linearGradient>
</defs>
</svg>
