<svg width="23" height="19" viewBox="0 0 23 19" fill="none" xmlns="http://www.w3.org/2000/svg">
<path d="M1.39478 0.189322C1.21453 0.0436772 0.985631 -0.0220627 0.758443 0.00656471C0.531255 0.0351921 0.324384 0.155842 0.183341 0.341972C0.0422972 0.528102 -0.0213656 0.764466 0.0063573 0.999067C0.0340802 1.23367 0.150918 1.44729 0.331167 1.59293L21.6052 18.8107C21.7855 18.9563 22.0144 19.0221 22.2416 18.9934C22.4687 18.9648 22.6756 18.8442 22.8167 18.658C22.9577 18.4719 23.0214 18.2355 22.9936 18.0009C22.9659 17.7663 22.8491 17.5527 22.6688 17.4071L18.8886 14.3502C20.0967 13.077 21.0718 11.5886 21.767 9.95699C21.8256 9.81256 21.8557 9.65754 21.8557 9.50096C21.8557 9.34438 21.8256 9.18936 21.767 9.04493C20.9832 7.20498 19.8443 5.5494 18.42 4.17934C16.5713 2.30151 14.0938 1.2303 11.5009 1.18779C9.28434 1.20874 7.13989 2.00395 5.41678 3.44393L1.39478 0.189322ZM8.01817 5.54839C8.92255 4.69848 10.0892 4.20674 11.3112 4.16038C12.5332 4.11401 13.7316 4.516 14.694 5.29508C15.6563 6.07415 16.3204 7.17997 16.5685 8.41645C16.8166 9.65293 16.6326 10.9402 16.0492 12.0499L14.662 10.9286C14.8913 10.3862 14.9863 9.79346 14.9384 9.20375C14.8904 8.61404 14.7011 8.04591 14.3875 7.55061C14.0739 7.0553 13.6458 6.64839 13.1419 6.36656C12.6379 6.08473 12.074 5.93685 11.5009 5.93625C11.4003 5.93584 11.2998 5.94096 11.1997 5.95161C11.3861 6.28837 11.4895 6.66727 11.5009 7.05498C11.5122 7.44269 11.4312 7.82735 11.2648 8.17511L8.01817 5.54839ZM16.0361 16.6064L13.3994 14.4693C12.6152 14.7872 11.7677 14.9026 10.9305 14.8054C10.0933 14.7083 9.29173 14.4016 8.59541 13.9118C7.89908 13.4221 7.32907 12.7643 6.93489 11.9954C6.5407 11.2266 6.33426 10.37 6.3335 9.5C6.33378 9.2495 6.35055 8.9993 6.3837 8.75115L2.98647 5.99385C2.28265 6.92764 1.69599 7.94957 1.24044 9.03533C1.18189 9.17976 1.15173 9.33478 1.15173 9.49136C1.15173 9.64794 1.18189 9.80296 1.24044 9.94739C2.02422 11.7873 3.16309 13.4429 4.58747 14.813C6.43566 16.6904 8.91246 17.7615 11.5046 17.8045C13.0885 17.8038 14.6468 17.3918 16.0361 16.6064Z" fill="black" fill-opacity="0.2"/>
</svg>
